<svg width="163" height="163" viewBox="0 0 163 163" fill="none" xmlns="http://www.w3.org/2000/svg">
<path fill-rule="evenodd" clip-rule="evenodd" d="M61.656 134.327H102.024C103.494 134.327 104.686 135.519 104.686 136.99C104.686 138.46 103.494 139.652 102.024 139.652H61.656C60.1856 139.652 58.9936 138.46 58.9936 136.99C58.9936 135.519 60.1856 134.327 61.656 134.327Z" fill="white"/>
<path d="M101.876 122.031H62.9573C61.4869 122.031 60.2949 123.223 60.2949 124.693C60.2949 126.163 61.4869 127.355 62.9573 127.355H101.876C103.346 127.355 104.538 126.163 104.538 124.693C104.538 123.223 103.346 122.031 101.876 122.031Z" fill="white"/>
<path d="M101.876 109.902H62.9573C61.4869 109.902 60.2949 111.094 60.2949 112.564C60.2949 114.035 61.4869 115.227 62.9573 115.227H101.876C103.346 115.227 104.538 114.035 104.538 112.564C104.538 111.094 103.346 109.902 101.876 109.902Z" fill="white"/>
<path d="M101.876 97.773H62.9573C61.4869 97.773 60.2949 98.965 60.2949 100.435C60.2949 101.906 61.4869 103.098 62.9573 103.098H101.876C103.346 103.098 104.538 101.906 104.538 100.435C104.538 98.965 103.346 97.773 101.876 97.773Z" fill="white"/>
<path d="M101.876 85.6441H62.9573C61.4869 85.6441 60.2949 86.8361 60.2949 88.3066C60.2949 89.777 61.4869 90.969 62.9573 90.969H101.876C103.346 90.969 104.538 89.777 104.538 88.3066C104.538 86.8361 103.346 85.6441 101.876 85.6441Z" fill="white"/>
<path d="M101.876 73.5153H62.9573C61.4869 73.5153 60.2949 74.7073 60.2949 76.1777C60.2949 77.6482 61.4869 78.8402 62.9573 78.8402H101.876C103.346 78.8402 104.538 77.6482 104.538 76.1777C104.538 74.7073 103.346 73.5153 101.876 73.5153Z" fill="white"/>
<path fill-rule="evenodd" clip-rule="evenodd" d="M58.9936 137.026L58.9936 64.8765C58.9936 63.4392 60.1588 62.274 61.5962 62.274C63.0335 62.274 64.1987 63.4392 64.1987 64.8765V137.026C64.1987 138.463 63.0335 139.628 61.5962 139.628C60.1588 139.628 58.9936 138.463 58.9936 137.026Z" fill="white"/>
<path d="M137.338 61.3865H26.6624C25.192 61.3865 24 62.5785 24 64.0489C24 65.5193 25.192 66.7113 26.6624 66.7113H137.338C138.808 66.7113 140 65.5193 140 64.0489C140 62.5785 138.808 61.3865 137.338 61.3865Z" fill="white"/>
<path d="M137.338 49.2577H26.6624C25.192 49.2577 24 50.4497 24 51.9201C24 53.3905 25.192 54.5825 26.6624 54.5825H137.338C138.808 54.5825 140 53.3905 140 51.9201C140 50.4497 138.808 49.2577 137.338 49.2577Z" fill="white"/>
<path d="M137.338 37.1288H26.6624C25.192 37.1288 24 38.3208 24 39.7912C24 41.2617 25.192 42.4537 26.6624 42.4537H137.338C138.808 42.4537 140 41.2617 140 39.7912C140 38.3208 138.808 37.1288 137.338 37.1288Z" fill="white"/>
<path d="M137.338 25H26.6624C25.192 25 24 26.192 24 27.6624C24 29.1328 25.192 30.3249 26.6624 30.3249H137.338C138.808 30.3249 140 29.1328 140 27.6624C140 26.192 138.808 25 137.338 25Z" fill="white"/>
<path fill-rule="evenodd" clip-rule="evenodd" d="M134.795 63.5716V27.7768C134.795 26.3394 135.96 25.1742 137.397 25.1742C138.835 25.1742 140 26.3394 140 27.7768V63.5716C140 65.009 138.835 66.1742 137.397 66.1742C135.96 66.1742 134.795 65.009 134.795 63.5716Z" fill="white"/>
<path d="M11 0H152C158.075 0 163 4.92487 163 11V152C163 158.075 158.075 163 152 163H11C4.92487 163 0 158.075 0 152V11C0 4.92487 4.92487 0 11 0ZM11 5.3C7.85198 5.3 5.3 7.85198 5.3 11V152C5.3 155.148 7.85198 157.7 11 157.7H152C155.148 157.7 157.7 155.148 157.7 152V11C157.7 7.85198 155.148 5.3 152 5.3H11Z" fill="white"/>
</svg>
